<?xml version="1.0" standalone="no"?>
<!DOCTYPE svg PUBLIC "-//W3C//DTD SVG 20010904//EN"
 "http://www.w3.org/TR/2001/REC-SVG-20010904/DTD/svg10.dtd">
<svg version="1.0" xmlns="http://www.w3.org/2000/svg"
 width="1280.000000pt" height="620.000000pt" viewBox="0 0 1280.000000 620.000000"
 preserveAspectRatio="xMidYMid meet">

<g transform="translate(0.000000,620.000000) scale(0.100000,-0.100000)"
fill="#000000" stroke="none">
<path fill="#fff" d="M7810 6096 c-80 -85 -496 -528 -885 -941 -93 -99 -233 -248 -311
-330 -77 -83 -257 -274 -400 -425 -142 -152 -434 -462 -649 -690 -535 -569
-530 -564 -543 -556 -6 3 -35 46 -63 94 -48 79 -185 303 -624 1020 -82 133
-152 242 -157 242 -5 0 -104 -89 -220 -197 -117 -109 -244 -227 -283 -263 -98
-90 -2305 -2138 -2385 -2214 -36 -34 -314 -293 -617 -575 -304 -282 -553 -514
-553 -516 0 -3 227 165 504 373 454 340 760 568 2066 1543 217 163 591 441
830 620 239 179 461 344 494 368 49 36 62 42 80 33 11 -5 109 -83 216 -172
107 -89 283 -235 392 -323 108 -89 198 -167 201 -172 2 -6 -41 -60 -97 -120
-55 -61 -454 -497 -886 -970 -909 -995 -1164 -1274 -1453 -1588 -115 -126
-207 -230 -205 -232 2 -2 172 137 378 308 207 172 598 496 870 722 460 380
921 763 1405 1165 212 176 660 548 1326 1100 222 184 591 490 819 680 757 629
812 675 823 678 7 1 113 -84 237 -190 123 -106 274 -236 335 -288 62 -52 345
-296 631 -541 285 -245 778 -668 1094 -939 316 -271 608 -523 649 -559 41 -36
71 -59 66 -51 -9 15 -371 499 -1396 1870 -278 371 -750 1001 -1048 1400 -298
399 -545 726 -549 726 -4 1 -45 -40 -92 -90z"/>
</g>
</svg>
